PathFileType	4	(X/Y/Z)	Walk4.trc
DataRate	CameraRate	NumFrames	NumMarkers	Units	OrigDataRate	OrigDataStartFrame	OrigNumFrames
200.000000	200.000000	6	69	mm	200.000000	888	1013
Frame#	Times		LFHD		LowerBodyModelVer		RCAR		RFHD		RWRU		RACR1		RFA1		RASI		LElbow		LTH3		LTB1		RUA1		LMT1		LACR1		LLFC		LMT5		LTH4		LTH2		LUA1		RTH2		LTB3		LTB2		LTB4		LToe		STRN		RBHD		CLAV		RTH4		RLFC		LLMAL		LASI		PELOrigin		RTH3		LWRU		RBack		LTH1		LFA1		C7		RPSI		LBHD		RMT1		RCAL		RMT5		LPSI		RTH1		RTB2		RToe		LHJC		MidPelvis		OPelvis		RHJC		SACR		XPelvis		YPelvis		ZPelvis		LCAR		RLMAL		LWRR		RWRR		RElbow		RTB1		RTB3		RTB4		RMMAL		LMMAL		T10		RElbowM		LCAL		LElbowM
			X1	Y1	Z1	X2	Y2	Z2	X3	Y3	Z3	X4	Y4	Z4	X5	Y5	Z5	X6	Y6	Z6	X7	Y7	Z7	X8	Y8	Z8	X9	Y9	Z9	X10	Y10	Z10	X11	Y11	Z11	X12	Y12	Z12	X13	Y13	Z13	X14	Y14	Z14	X15	Y15	Z15	X16	Y16	Z16	X17	Y17	Z17	X18	Y18	Z18	X19	Y19	Z19	X20	Y20	Z20	X21	Y21	Z21	X22	Y22	Z22	X23	Y23	Z23	X24	Y24	Z24	X25	Y25	Z25	X26	Y26	Z26	X27	Y27	Z27	X28	Y28	Z28	X29	Y29	Z29	X30	Y30	Z30	X31	Y31	Z31	X32	Y32	Z32	X33	Y33	Z33	X34	Y34	Z34	X35	Y35	Z35	X36	Y36	Z36	X37	Y37	Z37	X38	Y38	Z38	X39	Y39	Z39	X40	Y40	Z40	X41	Y41	Z41	X42	Y42	Z42	X43	Y43	Z43	X44	Y44	Z44	X45	Y45	Z45	X46	Y46	Z46	X47	Y47	Z47	X48	Y48	Z48	X49	Y49	Z49	X50	Y50	Z50	X51	Y51	Z51	X52	Y52	Z52	X53	Y53	Z53	X54	Y54	Z54	X55	Y55	Z55	X56	Y56	Z56	X57	Y57	Z57	X58	Y58	Z58	X59	Y59	Z59	X60	Y60	Z60	X61	Y61	Z61	X62	Y62	Z62	X63	Y63	Z63	X64	Y64	Z64	X65	Y65	Z65	X66	Y66	Z66	X67	Y67	Z67	X68	Y68	Z68	X69	Y69	Z69

888	4.44	525.52	1575.4	64.898	9	2014	4	514.89	798	450.63	530.33	1572.3	162.62	463.51	841.42	463.01	405.98	1362.8	280.64	455.81	947.86	431.54	473.9	948.1	261.81	295.91	1096	-198.64	484.82	563.3	-130.46	588.92	364.75	-25.942	391.39	1217.6	368.66	745.21	99.56	-50.802	402.2	1370.5	-77.57	492.18	495.84	-110.83	717.3	75.443	-129.13	462.88	646.27	-153.05	517.27	664.54	-133	368.32	1230.5	-161.51	419.9	621.35	246.83	620.87	197.34	-47.369	585.57	285.64	-96.916	601.17	280.65	-37.501	777.74	116.37	-60.683	539.29	1218.7	108.55	360.67	1565.2	179.25	475.44	1336.6	103.71	364.84	626.69	262.95	330.19	453.95	228.48	596.17	90.318	-105.33	476.41	970.25	-96.332	475.16	959.17	82.737	346.92	546.38	244.8	278.95	860.46	-276.24	265.39	1302.2	209.96	443.66	727.55	-172.19	326.75	968.82	-241.42	316.78	1411.5	119.87	227.25	981.44	109.41	372.9	1558.3	43.882	353.43	35.896	114.47	165.26	33.299	155.23	342.29	26.921	207.2	242.28	983.92	-23.031	392.67	706.5	284.41	310.16	264.89	208.15	400.21	31.208	124.28	383.48	859.77	-46.29	354.96	970.93	62.962	475.16	959.17	82.737	381.77	844.71	197.24	234.76	982.68	43.187	554.85	952.19	82.862	482.12	1038.7	87.704	474.6	954.24	162.58	306.24	806.53	-282.1	223	68.884	198.6	335.67	846.28	-228.66	503.54	851.41	400.98	364.81	1056.5	414.73	358.64	336.32	144.91	282.31	167.45	124.18	320.48	251.88	134.55	241.22	76.513	113.03	619.45	100.45	-24.689	259.69	1084.9	73.087	329.19	1031.1	333.28	566.55	33.273	-54.197	294.18	1053.2	-98.426
889	4.445	530.05	1574.7	63.888	9	2014	4	520.08	798.23	450.19	534.86	1571.7	161.62	468.65	841.56	462.63	410.31	1362.5	279.71	460.72	947.93	430.98	477.87	947.62	261.46	299.52	1095.6	-199.17	488.38	561.91	-130.58	594.72	364.97	-24.701	396.11	1217.4	367.81	754.16	101.21	-49.222	406.74	1369.8	-78.449	497.26	495.11	-110.39	727.08	76.819	-127.76	466.84	645	-153.29	521.11	663.12	-132.72	372.39	1229.8	-162.29	423.43	620.72	246.58	628.69	197.92	-46.414	593.1	286.03	-95.989	608.04	280.99	-36.424	786.63	118.31	-58.707	543.86	1218.1	108.33	365.21	1564.6	178.26	479.99	1336	102.94	367.77	626.94	263.03	333.14	453.55	228.26	605.6	90.749	-104.95	481.52	969.35	-96.547	479.69	958.49	82.454	350.24	545.94	244.52	280.43	860.16	-276.76	269.83	1301.6	208.96	447.98	726.34	-172.49	329.28	968.14	-242.06	321.28	1410.9	118.89	231.6	980.99	108.36	377.43	1557.7	42.893	353.45	35.894	114.49	165.35	33.753	155.23	342.28	26.916	207.21	247.02	983.33	-24.047	396.4	705.98	284.05	311.73	264.64	208.11	400.26	31.131	124.31	388.37	859.05	-46.696	359.5	970.32	62.305	479.69	958.49	82.454	385.89	844.27	196.75	239.31	982.16	42.156	559.38	951.44	82.839	486.7	1038	87.354	478.88	953.64	162.3	307.2	805.97	-282.69	223.21	69.174	198.59	337.19	845.49	-229.37	508.55	851.54	400.5	369.57	1056.4	414.26	360.85	335.65	144.85	283.23	167.34	124.13	322.04	251.5	134.49	241.44	76.716	112.97	628.08	101	-24.027	264.21	1084.2	72.179	333.52	1030.9	333.03	576.07	33.263	-54.155	297.81	1052.7	-98.87
890	4.45	534.58	1574.1	62.843	9	2014	4	525.21	798.43	449.7	539.38	1571.1	160.58	473.71	841.67	462.22	414.64	1362.1	278.74	465.56	947.98	430.38	481.87	947.13	261.05	303.16	1095	-199.73	492.27	560.65	-130.66	600.43	365.05	-23.472	400.77	1217.2	366.95	762.48	102.52	-47.554	411.3	1369	-79.371	502.63	494.45	-109.99	736.19	77.921	-126.29	470.99	643.8	-153.53	525.11	661.87	-132.43	376.47	1229.1	-163.1	426.99	620.08	246.32	636.08	198.32	-45.382	600.39	286.28	-95.022	614.66	281.19	-35.31	794.92	119.85	-56.661	548.43	1217.5	108.05	369.73	1564	177.23	484.54	1335.4	102.13	370.86	627.09	263.03	336.1	453.15	228.03	614.41	91.058	-104.43	486.66	968.44	-96.775	484.27	957.78	82.139	353.59	545.5	244.24	282.01	859.83	-277.28	274.26	1301	207.91	452.37	725.16	-172.83	331.87	967.43	-242.71	325.77	1410.3	117.86	235.97	980.52	107.32	381.94	1557.1	41.867	353.47	35.889	114.51	165.44	34.239	155.24	342.26	26.913	207.22	251.76	982.72	-25.065	400.18	705.45	283.66	313.31	264.38	208.05	400.29	31.049	124.33	393.31	858.33	-47.116	364.07	969.7	61.632	484.27	957.78	82.139	390.06	843.84	196.21	243.86	981.62	41.125	563.95	950.67	82.78	491.33	1037.3	86.971	483.2	953.03	161.99	308.27	805.39	-283.27	223.42	69.479	198.58	338.8	844.69	-230.08	513.48	851.65	399.97	374.28	1056.3	413.76	363.06	334.99	144.77	284.16	167.26	124.07	323.61	251.12	134.42	241.67	76.94	112.92	636.13	101.42	-23.246	268.74	1083.5	71.261	337.8	1030.7	332.74	584.91	33.196	-53.959	301.48	1052.2	-99.338
891	4.455	539.09	1573.4	61.762	9	2014	4	530.27	798.61	449.17	543.89	1570.4	159.5	478.7	841.76	461.76	418.97	1361.8	277.74	470.35	948.01	429.73	485.93	946.62	260.6	306.82	1094.5	-200.32	496.54	559.52	-130.68	606.07	365	-22.26	405.38	1217	366.08	770.17	103.5	-45.8	415.88	1368.2	-80.336	508.3	493.87	-109.62	744.64	78.725	-124.72	475.36	642.68	-153.76	529.28	660.8	-132.12	380.57	1228.3	-163.94	430.57	619.44	246.05	643.06	198.54	-44.277	607.42	286.38	-94.021	621.02	281.22	-34.165	802.62	121	-54.545	553	1216.9	107.69	374.24	1563.3	176.16	489.09	1334.8	101.27	374.1	627.15	262.96	339.09	452.75	227.79	622.61	91.222	-103.78	491.83	967.51	-97.017	488.88	957.07	81.792	356.96	545.04	243.96	283.69	859.47	-277.81	278.7	1300.4	206.82	456.83	724	-173.2	334.52	966.69	-243.38	330.26	1409.6	116.78	240.36	980.02	106.28	386.45	1556.4	40.805	353.49	35.883	114.54	165.53	34.757	155.26	342.24	26.913	207.23	256.51	982.1	-26.084	404	704.9	283.24	314.93	264.14	207.99	400.32	30.962	124.35	398.3	857.6	-47.551	368.66	969.06	60.944	488.88	957.07	81.792	394.29	843.4	195.63	248.44	981.06	40.096	568.56	949.89	82.687	496	1036.6	86.556	487.57	952.4	161.64	309.45	804.79	-283.85	223.64	69.799	198.58	340.5	843.86	-230.77	518.35	851.74	399.4	378.95	1056.1	413.22	365.27	334.32	144.67	285.08	167.18	124.01	325.17	250.75	134.34	241.91	77.183	112.88	643.59	101.67	-22.345	273.3	1082.8	70.335	342.03	1030.5	332.42	593.06	33.049	-53.612	305.2	1051.7	-99.831
892	4.46	543.59	1572.8	60.646	9	2014	4	535.25	798.77	448.59	548.4	1569.8	158.39	483.62	841.84	461.25	423.3	1361.4	276.71	475.08	948.02	429.05	490.05	946.1	260.1	310.52	1093.9	-200.94	501.22	558.54	-130.63	611.63	364.8	-21.071	409.95	1216.8	365.2	777.24	104.1	-43.963	420.46	1367.4	-81.345	514.24	493.37	-109.27	752.44	79.216	-123.03	479.98	641.64	-153.97	533.65	659.93	-131.79	384.69	1227.6	-164.81	434.17	618.78	245.76	649.63	198.56	-43.107	614.18	286.31	-92.989	627.13	281.1	-32.998	809.73	121.72	-52.361	557.57	1216.2	107.26	378.74	1562.7	175.06	493.65	1334.2	100.36	377.49	627.11	262.82	342.11	452.35	227.55	630.18	91.221	-103	497.03	966.57	-97.274	493.54	956.34	81.415	360.35	544.57	243.68	285.47	859.07	-278.34	283.13	1299.8	205.69	461.38	722.86	-173.6	337.24	965.92	-244.07	334.74	1408.9	115.66	244.79	979.51	105.24	390.94	1555.7	39.706	353.51	35.874	114.56	165.62	35.311	155.27	342.23	26.915	207.24	261.27	981.47	-27.103	407.86	704.35	282.81	316.57	263.9	207.92	400.35	30.87	124.36	403.32	856.86	-47.999	373.28	968.41	60.242	493.54	956.34	81.415	398.57	842.95	195.02	253.03	980.49	39.07	573.2	949.1	82.557	500.7	1035.9	86.11	491.98	951.76	161.27	310.74	804.16	-284.42	223.87	70.135	198.58	342.29	843.01	-231.47	523.15	851.8	398.79	383.57	1056	412.65	367.48	333.65	144.56	286.01	167.12	123.95	326.75	250.38	134.25	242.15	77.447	112.85	650.47	101.75	-21.33	277.87	1082.1	69.401	346.22	1030.3	332.06	600.53	32.807	-53.118	308.97	1051.1	-100.35
893	4.465	548.09	1572.1	59.494	9	2014	4	540.15	798.91	447.97	552.89	1569.1	157.24	488.46	841.89	460.69	427.63	1361.1	275.64	479.74	948	428.32	494.21	945.56	259.56	314.25	1093.2	-201.58	506.33	557.72	-130.49	617.12	364.45	-19.91	414.47	1216.6	364.3	783.71	104.35	-42.045	425.07	1366.6	-82.398	520.45	492.93	-108.92	759.59	79.383	-121.25	484.86	640.7	-154.13	538.23	659.26	-131.44	388.83	1226.7	-165.72	437.8	618.12	245.47	655.79	198.37	-41.875	620.67	286.06	-91.932	632.98	280.8	-31.814	816.27	122.02	-50.111	562.14	1215.6	106.75	383.23	1562	173.91	498.22	1333.5	99.405	381	626.97	262.6	345.15	451.93	227.3	637.15	91.046	-102.1	502.25	965.61	-97.547	498.23	955.59	81.008	363.76	544.1	243.39	287.35	858.63	-278.88	287.57	1299.2	204.52	466.03	721.75	-174.01	340.03	965.12	-244.78	339.22	1408.3	114.48	249.25	978.97	104.22	395.42	1555.1	38.571	353.54	35.863	114.59	165.7	35.903	155.3	342.21	26.918	207.24	266.03	980.82	-28.121	411.76	703.79	282.36	318.24	263.66	207.83	400.36	30.773	124.38	408.37	856.12	-48.461	377.94	967.74	59.528	498.23	955.59	81.008	402.91	842.48	194.38	257.64	979.89	38.047	577.88	948.29	82.392	505.44	1035.1	85.636	496.43	951.1	160.86	312.15	803.51	-284.99	224.1	70.487	198.58	344.19	842.14	-232.16	527.87	851.84	398.13	388.13	1055.9	412.04	369.7	332.98	144.44	286.95	167.07	123.9	328.33	250.02	134.17	242.4	77.733	112.83	656.77	101.63	-20.204	282.46	1081.4	68.461	350.37	1030.1	331.66	607.32	32.459	-52.484	312.8	1050.5	-100.9
